<?xml version="1.0" encoding="utf-8"?>
<!-- Generator: Adobe Illustrator 16.0.0, SVG Export Plug-In . SVG Version: 6.00 Build 0)  -->
<!DOCTYPE svg PUBLIC "-//W3C//DTD SVG 1.1//EN" "http://www.w3.org/Graphics/SVG/1.1/DTD/svg11.dtd">
<svg version="1.1" id="Layer_1" xmlns="http://www.w3.org/2000/svg" xmlns:xlink="http://www.w3.org/1999/xlink" x="0px" y="0px"
	 width="1520px" height="80px" viewBox="0 0 1520 80" enable-background="new 0 0 1520 80" xml:space="preserve">
<rect y="58" fill="#2D587C" width="80" height="12"/>
<rect y="34" fill="#2D587C" width="80" height="12"/>
<rect x="80" y="11" fill="#2D587C" width="80" height="12"/>
<rect x="80" y="57" fill="#2D587C" width="80" height="12"/>
<rect x="80" y="42" fill="#2D587C" width="80" height="6"/>
<rect x="80" y="32" fill="#2D587C" width="80" height="6"/>
<rect x="160" y="11" fill="#2D587C" width="80" height="12"/>
<rect x="160" y="57" fill="#2D587C" width="80" height="12"/>
<rect x="160" y="44" fill="#2D587C" width="80" height="6"/>
<rect x="160" y="30" fill="#2D587C" width="80" height="6"/>
<rect x="240" y="11" fill="#2D587C" width="80" height="12"/>
<rect x="240" y="57" fill="#2D587C" width="80" height="12"/>
<rect x="240" y="46" fill="#2D587C" width="80" height="6"/>
<rect x="240" y="28" fill="#2D587C" width="80" height="6"/>
<rect x="320" y="11" fill="#2D587C" width="80" height="12"/>
<rect x="320" y="57" fill="#2D587C" width="80" height="12"/>
<rect x="320" y="48" fill="#2D587C" width="80" height="6"/>
<rect x="320" y="26" fill="#2D587C" width="80" height="6"/>
<rect x="400" y="11" fill="#2D587C" width="80" height="12"/>
<rect x="400" y="57" fill="#2D587C" width="80" height="12"/>
<rect x="400" y="50" fill="#2D587C" width="80" height="6"/>
<rect x="400" y="24" fill="#2D587C" width="80" height="6"/>
<rect x="480" y="11" fill="#2D587C" width="80" height="12"/>
<rect x="480" y="57" fill="#2D587C" width="80" height="12"/>
<rect x="480" y="52" fill="#2D587C" width="80" height="6"/>
<rect x="480" y="22" fill="#2D587C" width="80" height="6"/>
<rect x="560" y="11" fill="#FFFFFF" width="80" height="12"/>
<rect x="560" y="57" fill="#FFFFFF" width="80" height="12"/>
<rect x="560" y="54" fill="#FFFFFF" width="80" height="6"/>
<rect x="560" y="20" fill="#FFFFFF" width="80" height="6"/>
<rect x="640" y="11" fill="#FFFFFF" width="80" height="12"/>
<rect x="640" y="57" fill="#FFFFFF" width="80" height="12"/>
<rect x="640" y="56" fill="#FFFFFF" width="80" height="6"/>
<rect x="640" y="18" fill="#FFFFFF" width="80" height="6"/>
<rect x="720" y="9" fill="#FFFFFF" width="80" height="12"/>
<rect x="720" y="59" fill="#FFFFFF" width="80" height="12"/>
<rect y="11" fill="#2D587C" width="80" height="12"/>
<rect x="798.981" y="61.019" transform="matrix(0.9848 0.1737 -0.1737 0.9848 24.3934 -144.7068)" fill="#FFFFFF" width="80" height="12.001"/>
<rect x="799" y="7.01" transform="matrix(0.9848 -0.1736 0.1736 0.9848 10.4812 145.8517)" fill="#FFFFFF" width="79.999" height="12"/>
<rect x="879.982" y="54.738" transform="matrix(0.9397 0.342 -0.342 0.9397 76.2493 -310.9757)" fill="#FFFFFF" width="80" height="12"/>
<rect x="880.001" y="13.304" transform="matrix(0.9397 -0.342 0.342 0.9397 48.8737 315.8036)" fill="#FFFFFF" width="80" height="12"/>
<polygon fill="#FFFFFF" points="1031.953,80 960.298,37.4 966.512,26.3 1038.167,68.9 "/>
<rect x="1429.956" y="34.099" transform="matrix(0.7071 0.7071 -0.7071 0.7071 461.9984 -1035.1661)" fill="#FFFFFF" width="101.199" height="12"/>
<rect x="1430.131" y="34.041" transform="matrix(0.7071 -0.7071 0.7071 0.7071 405.339 1058.6565)" fill="#FFFFFF" width="100.899" height="12"/>
<polygon fill="#FFFFFF" points="960.492,42.7 1031.953,0 1038.167,11.1 966.707,53.8 "/>
<polygon fill="#FFFFFF" points="1044.592,24.9 1117.311,70.4 1114.001,80.4 1041.187,34.9 "/>
<polygon fill="#FFFFFF" points="1041.376,42.3 1113.907,-0.1 1117.5,9.6 1044.875,52.1 "/>
<polygon fill="#FFFFFF" points="1430.052,80.096 1361.175,8.537 1369.342,0.052 1438.219,71.61 "/>
<polygon fill="#FFFFFF" points="1438.142,8.635 1369.469,79.982 1361.302,71.496 1429.975,0.15 "/>
<polygon fill="#FFFFFF" points="1287.693,6.3 1355.623,71.5 1349.027,80.6 1281.099,15.4 "/>
<polygon fill="#FFFFFF" points="1281.663,66.5 1349.405,0 1356,9.3 1288.258,75.8 "/>
<polygon fill="#FFFFFF" points="1208.124,12.5 1277,71 1271.543,80.5 1202.667,22 "/>
<polygon fill="#FFFFFF" points="1202.667,55.6 1271.354,0 1276.906,9.2 1208.219,64.8 "/>
<polygon fill="#FFFFFF" points="1125.819,17.8 1197.8,70.1 1193.318,79.9 1121.434,27.7 "/>
<polygon fill="#FFFFFF" points="1121.624,49.4 1193.033,0.1 1197.609,9.6 1126.2,59 "/>
</svg>
