<?xml version="1.0" encoding="utf-8"?>
<!-- Generator: Adobe Illustrator 22.0.0, SVG Export Plug-In . SVG Version: 6.00 Build 0)  -->
<svg version="1.1" id="Layer_1" xmlns="http://www.w3.org/2000/svg" xmlns:xlink="http://www.w3.org/1999/xlink" x="0px" y="0px"
	 viewBox="0 0 1520.5 80.5" style="enable-background:new 0 0 1520.5 80.5;" xml:space="preserve">
<style type="text/css">
	.st0{fill:#2D587C;}
	.st1{fill:#FFFFFF;}
</style>
<g id="Layer_1_1_">
	<rect y="57.1" class="st0" width="80" height="12"/>
	<rect y="34.1" class="st0" width="80" height="12"/>
	<rect x="80" y="11.1" class="st0" width="80" height="12"/>
	<rect x="80" y="57.1" class="st0" width="80" height="12"/>
	<rect x="80" y="42.1" class="st0" width="80" height="6"/>
	<rect x="80" y="32.1" class="st0" width="80" height="6"/>
	<rect x="160" y="11.1" class="st0" width="80" height="12"/>
	<rect x="160" y="57.1" class="st0" width="80" height="12"/>
	<rect x="160" y="44.1" class="st0" width="80" height="6"/>
	<rect x="160" y="30.1" class="st0" width="80" height="6"/>
	<rect x="240" y="11.1" class="st0" width="80" height="12"/>
	<rect x="240" y="57.1" class="st0" width="80" height="12"/>
	<rect x="240" y="46.1" class="st0" width="80" height="6"/>
	<rect x="240" y="28.1" class="st0" width="80" height="6"/>
	<rect x="320" y="11.1" class="st0" width="80" height="12"/>
	<rect x="320" y="57.1" class="st0" width="80" height="12"/>
	<rect x="320" y="48.1" class="st0" width="80" height="6"/>
	<rect x="320" y="26.1" class="st0" width="80" height="6"/>
	<rect x="400" y="11.1" class="st0" width="80" height="12"/>
	<rect x="400" y="57.1" class="st0" width="80" height="12"/>
	<rect x="400" y="50.1" class="st0" width="80" height="6"/>
	<rect x="400" y="24.1" class="st0" width="80" height="6"/>
	<rect x="480" y="11.1" class="st0" width="80" height="12"/>
	<rect x="480" y="57.1" class="st0" width="80" height="12"/>
	<rect x="480" y="52.1" class="st0" width="80" height="6"/>
	<rect x="480" y="22.1" class="st0" width="80" height="6"/>
	<rect x="560" y="11.1" class="st0" width="80" height="12"/>
	<rect x="560" y="57.1" class="st0" width="80" height="12"/>
	<rect x="560" y="54.1" class="st0" width="80" height="6"/>
	<rect x="560" y="20.1" class="st0" width="80" height="6"/>
	<rect x="640" y="11.1" class="st0" width="80" height="12"/>
	<rect x="640" y="57.1" class="st0" width="80" height="12"/>
	<rect x="640" y="56.1" class="st0" width="80" height="6"/>
	<rect x="640" y="18.1" class="st0" width="80" height="6"/>
	<rect x="720" y="9.1" class="st0" width="80" height="12"/>
	<rect x="720" y="59.1" class="st0" width="80" height="12"/>
	<rect y="11.1" class="st0" width="80" height="12"/>
	<rect x="833" y="27.1" transform="matrix(0.1737 -0.9848 0.9848 0.1737 627.1691 881.6911)" class="st1" width="12" height="80"/>
	<rect x="799" y="7.1" transform="matrix(0.9848 -0.1736 0.1736 0.9848 10.4655 145.8523)" class="st1" width="80" height="12"/>
	<rect x="914" y="20.8" transform="matrix(0.342 -0.9397 0.9397 0.342 548.1981 904.5408)" class="st1" width="12" height="80"/>
	<rect x="880" y="13.4" transform="matrix(0.9397 -0.342 0.342 0.9397 48.8395 315.8098)" class="st1" width="80" height="12"/>
	<polygon class="st1" points="1033.1,80.1 959.3,37.5 965.7,26.4 1039.5,69 	"/>
	
		<rect x="1474.5" y="-10.4" transform="matrix(0.7071 -0.7071 0.7071 0.7071 405.2141 1058.6642)" class="st1" width="12" height="101.2"/>
	
		<rect x="1430.1" y="34.2" transform="matrix(0.7071 -0.7071 0.7071 0.7071 405.2453 1058.6932)" class="st1" width="100.9" height="12"/>
	<polygon class="st1" points="959.5,42.8 1033.1,0.1 1039.5,11.2 965.9,53.9 	"/>
	<polygon class="st1" points="1043.4,25 1120.3,70.5 1116.8,80.5 1039.8,35 	"/>
	<polygon class="st1" points="1040,42.4 1116.7,0 1120.5,9.7 1043.7,52.2 	"/>
</g>
<g id="Layer_2_1_">
	<g id="Layer_3">
	</g>
	
		<rect x="1394.2" y="-10.4" transform="matrix(0.7071 -0.7071 0.7071 0.7071 381.688 1001.8608)" class="st1" width="12" height="101.2"/>
	
		<rect x="1349.8" y="34.2" transform="matrix(0.7071 -0.7071 0.7071 0.7071 381.714 1001.8917)" class="st1" width="100.9" height="12"/>
	<polygon class="st1" points="1287.5,6.4 1359.6,71.6 1352.6,80.7 1280.5,15.5 	"/>
	<polygon class="st1" points="1281.1,66.6 1353,0.1 1360,9.4 1288.1,75.9 	"/>
	<polygon class="st1" points="1206.8,12.6 1280,71.1 1274.2,80.6 1201,22.1 	"/>
	<polygon class="st1" points="1201,55.7 1274,0.1 1279.9,9.3 1206.9,64.9 	"/>
	<polygon class="st1" points="1125.3,17.9 1200.8,70.2 1196.1,80 1120.7,27.8 	"/>
	<polygon class="st1" points="1120.9,49.5 1195.8,0.2 1200.6,9.7 1125.7,59.1 	"/>
</g>
</svg>
