<?xml version="1.0" encoding="utf-8"?>
<!-- Generator: Adobe Illustrator 16.0.0, SVG Export Plug-In . SVG Version: 6.00 Build 0)  -->
<!DOCTYPE svg PUBLIC "-//W3C//DTD SVG 1.1//EN" "http://www.w3.org/Graphics/SVG/1.1/DTD/svg11.dtd">
<svg version="1.1" id="Layer_1" xmlns="http://www.w3.org/2000/svg" xmlns:xlink="http://www.w3.org/1999/xlink" x="0px" y="0px"
	 width="720px" height="720px" viewBox="0 0 720 720" enable-background="new 0 0 720 720" xml:space="preserve">
<g id="Background" display="none">
	<g display="inline">
		<path fill="#27AAE1" d="M616.16,495.02c-11.05,20.962-24.86,40.842-41.41,59.12c-3.25,3.58-6.59,7.102-10.05,10.562
			c-24.54,24.54-52.392,43.75-82.12,57.64c-8.38,3.92-16.9,7.41-25.55,10.47c-7.761,2.762-15.62,5.172-23.55,7.24
			c-12.74,3.34-25.66,5.79-38.672,7.352h-0.01c-3.93,0.479-7.87,0.869-11.818,1.18h-0.012c-2.6,0.21-5.199,0.38-7.8,0.51
			c-79.06,4.12-159.49-24.01-219.87-84.39c-18.09-18.09-33.28-37.98-45.58-59.09c-4.24-7.262-8.13-14.67-11.67-22.21
			c-1.63-3.44-3.18-6.91-4.65-10.41c-0.71-1.66-1.4-3.33-2.07-5c-2.15-5.352-4.13-10.75-5.94-16.2c-1.09-3.25-2.12-6.521-3.07-9.8
			c-1.08-3.63-2.08-7.271-2.99-10.94c-1.8-7.1-3.32-14.25-4.56-21.438c-0.81-4.66-1.5-9.33-2.07-14.021
			c-0.69-5.54-1.21-11.1-1.57-16.67C65.9,298.66,93.96,216.64,155.3,155.3c113.05-113.05,296.352-113.05,409.4,0
			c34.01,34.01,57.78,74.37,71.319,117.27c2.149,6.76,4.029,13.59,5.659,20.46c0.552,2.35,1.08,4.7,1.57,7.06v0.01
			c0.47,2.22,0.92,4.44,1.32,6.67c0.738,3.91,1.39,7.84,1.948,11.78c0.19,1.29,0.37,2.57,0.53,3.86v0.01
			c0.37,2.78,0.69,5.58,0.96,8.37c0.67,6.56,1.11,13.13,1.32,19.71C650.95,400.1,639.89,450.03,616.16,495.02z"/>
	</g>
</g>
<g id="Graph" display="none">
	<g display="inline">
		<path fill="#D1D3D4" d="M649.46,363.76c-0.02,1.24-0.04,2.49-0.07,3.73c-0.04,1.25-0.08,2.49-0.12,3.729
			c-0.05,1.23-0.1,2.461-0.17,3.69c-0.068,1.37-0.148,2.739-0.229,4.108c-0.08,1.182-0.17,2.371-0.26,3.551
			c-0.092,1.181-0.19,2.371-0.302,3.551c-0.108,1.229-0.229,2.47-0.358,3.71v0.03c-0.16,1.52-0.33,3.029-0.51,4.539
			c-0.092,0.761-0.182,1.521-0.28,2.279c-0.102,0.771-0.2,1.53-0.3,2.29c-0.2,1.521-0.42,3.04-0.65,4.562
			c-0.21,1.39-0.43,2.778-0.66,4.17c-0.5,3.03-1.06,6.06-1.66,9.08c-0.35,1.778-0.729,3.56-1.119,5.34
			c-0.279,1.29-0.569,2.58-0.869,3.87c-0.012,0.06-0.03,0.12-0.04,0.18c-0.58,2.49-1.2,4.97-1.852,7.45
			c-0.278,1.1-0.58,2.188-0.88,3.28c-0.148,0.55-0.3,1.1-0.46,1.648c-0.35,1.23-0.7,2.46-1.06,3.69c-0.36,1.229-0.73,2.46-1.11,3.68
			c-1.44,4.64-2.99,9.25-4.67,13.82c-0.34,0.92-0.68,1.84-1.04,2.76c-4.08,10.84-8.84,21.48-14.29,31.86
			c-0.11,0.22-0.22,0.438-0.34,0.658c-0.67,1.271-1.352,2.54-2.04,3.812c-4.36,7.97-9.12,15.78-14.29,23.39
			c-1.311,1.932-2.64,3.852-4,5.74c-1.72,2.42-3.5,4.83-5.32,7.21c-0.608,0.82-1.239,1.62-1.87,2.43
			c-0.68,0.881-1.369,1.75-2.068,2.62c-0.61,0.78-1.23,1.55-1.87,2.32c-0.25,0.32-0.51,0.63-0.76,0.94
			c-0.11,0.14-0.23,0.278-0.341,0.408c-0.421,0.512-0.841,1.021-1.271,1.53c-0.72,0.86-1.44,1.72-2.17,2.57
			c-0.01,0.01-0.021,0.028-0.03,0.04c-0.8,0.93-1.6,1.85-2.398,2.77c-0.392,0.44-0.78,0.88-1.172,1.32
			c-0.6,0.67-1.198,1.35-1.81,2.02c-0.91,1-1.83,2-2.75,2.99c-1.38,1.48-2.77,2.95-4.2,4.41c-1.02,1.06-2.05,2.11-3.1,3.16
			c-24.54,24.54-52.391,43.75-82.12,57.64c-8.38,3.92-16.9,7.41-25.55,10.47c-7.761,2.762-15.62,5.172-23.55,7.24
			c-12.74,3.34-25.66,5.79-38.671,7.352H394.8c-3.93,0.479-7.87,0.868-11.818,1.18h-0.012c-2.6,0.21-5.199,0.38-7.8,0.51
			c-79.06,4.12-159.49-24.01-219.87-84.39c-18.09-18.09-33.28-37.98-45.58-59.09c-4.24-7.262-8.13-14.671-11.67-22.21
			c-1.63-3.44-3.18-6.91-4.65-10.41c-0.71-1.66-1.4-3.33-2.07-5c-2.15-5.352-4.13-10.75-5.94-16.2c-1.09-3.25-2.12-6.521-3.07-9.8
			c-1.08-3.63-2.08-7.271-2.99-10.94c-1.8-7.1-3.32-14.25-4.56-21.438c-0.81-4.66-1.5-9.33-2.07-14.021
			c-0.69-5.54-1.21-11.1-1.57-16.67C65.9,298.66,93.96,216.64,155.3,155.3c2.62-2.62,5.27-5.17,7.96-7.67
			c2.62-2.43,5.27-4.8,7.95-7.1c0.57-0.5,1.16-0.99,1.73-1.48c0.43-0.37,0.85-0.73,1.28-1.08c0.94-0.79,1.88-1.57,2.83-2.34
			c0.08-0.07,0.15-0.14,0.23-0.19c0.7-0.58,1.41-1.15,2.12-1.71c0.35-0.29,0.7-0.57,1.06-0.85c0.36-0.28,0.72-0.56,1.07-0.84
			c0.01-0.01,0.01-0.02,0.02-0.02c0.85-0.67,1.71-1.34,2.57-1.99c1.02-0.79,2.05-1.56,3.08-2.33c9.56-7.13,19.45-13.59,29.63-19.39
			c5.72-3.26,11.53-6.3,17.41-9.14c6.23-3.01,12.55-5.77,18.93-8.3c11.89-4.72,24.03-8.61,36.33-11.68
			c11.98-3.01,24.12-5.23,36.33-6.67c12.07-1.42,24.2-2.09,36.33-2c12.148,0.09,24.29,0.94,36.34,2.55
			c12.22,1.63,24.36,4.04,36.33,7.23c12.32,3.28,24.45,7.39,36.33,12.33c4.92,2.03,9.79,4.22,14.6,6.54
			c7.38,3.55,14.63,7.44,21.74,11.66c12.22,7.24,24.03,15.47,35.3,24.67c0.34,0.28,0.69,0.56,1.03,0.85
			c7.18,5.91,14.15,12.23,20.87,18.95c3.688,3.69,7.27,7.46,10.71,11.3c1.56,1.73,3.09,3.47,4.6,5.23
			c0.062,0.06,0.11,0.12,0.15,0.18c3.66,4.28,7.18,8.64,10.54,13.08c3.18,4.17,6.22,8.41,9.13,12.71c2.32,3.42,4.56,6.88,6.71,10.37
			c3.55,5.74,6.87,11.57,9.96,17.49c3.25,6.19,6.26,12.47,9.03,18.84c2.26,5.21,4.358,10.47,6.3,15.78
			c1.49,4.07,2.89,8.17,4.189,12.29c0.159,0.51,0.319,1.03,0.479,1.54c0.351,1.11,0.69,2.23,1.021,3.36
			c0.369,1.23,0.729,2.47,1.08,3.7c0.33,1.18,0.649,2.36,0.971,3.54c0.318,1.19,0.63,2.38,0.938,3.57c0.4,1.58,0.79,3.16,1.171,4.75
			c0.551,2.35,1.079,4.7,1.569,7.06v0.01c0.47,2.22,0.92,4.44,1.32,6.67c0.37,1.95,0.72,3.91,1.04,5.88
			c0.17,0.98,0.318,1.96,0.47,2.95c0.15,0.98,0.3,1.96,0.439,2.95c0.189,1.29,0.37,2.57,0.529,3.86v0.01
			c0.37,2.78,0.69,5.58,0.96,8.37c0.67,6.56,1.11,13.13,1.32,19.71c0.03,1,0.061,2,0.08,3C649.49,356.92,649.5,360.34,649.46,363.76
			z"/>
	</g>
	<polyline display="inline" fill="none" stroke="#808285" stroke-miterlimit="10" points="216.83,550 216.83,537.6 216.83,535.17 
		216.83,512.17 216.83,498.83 216.83,462.5 216.83,426.17 216.83,389.83 216.83,353.5 216.83,317.17 216.83,280.83 216.83,244.5 
		216.83,208.17 216.83,171.83 216.83,135.5 216.83,108.31 	"/>
	<polyline display="inline" fill="none" stroke="#808285" stroke-miterlimit="10" points="253.17,90.87 253.17,99.17 253.17,135.5 
		253.17,171.83 253.17,208.17 253.17,244.5 253.17,280.83 253.17,317.17 253.17,353.5 253.17,389.83 253.17,426.17 253.17,462.5 
		253.17,494.17 253.17,498.83 253.17,535.17 253.17,537.6 253.17,550 	"/>
	<polyline display="inline" fill="none" stroke="#808285" stroke-miterlimit="10" points="289.5,79.19 289.5,99.17 289.5,135.5 
		289.5,171.83 289.5,208.17 289.5,244.5 289.5,280.83 289.5,317.17 289.5,353.5 289.5,389.83 289.5,426.17 289.5,460.17 
		289.5,462.5 289.5,498.83 289.5,535.17 289.5,537.6 289.5,550 	"/>
	<polyline display="inline" fill="none" stroke="#808285" stroke-miterlimit="10" points="325.83,72.52 325.83,99.17 325.83,135.5 
		325.83,171.83 325.83,208.17 325.83,244.5 325.83,280.83 325.83,317.17 325.83,353.5 325.83,389.83 325.83,426.17 325.83,462.5 
		325.83,467.17 325.83,498.83 325.83,535.17 325.83,537.6 325.83,550 	"/>
	<polyline display="inline" fill="none" stroke="#808285" stroke-miterlimit="10" points="362.16,70.52 362.16,99.17 362.16,135.5 
		362.16,171.83 362.16,208.17 362.16,244.5 362.16,280.83 362.16,317.17 362.16,353.5 362.16,389.83 362.16,426.17 362.16,447.17 
		362.16,462.5 362.16,498.83 362.16,535.17 362.16,537.6 362.16,550 	"/>
	<polyline display="inline" fill="none" stroke="#808285" stroke-miterlimit="10" points="398.5,73.07 398.5,99.17 398.5,135.5 
		398.5,171.83 398.5,208.17 398.5,244.5 398.5,280.83 398.5,317.17 398.5,353.5 398.5,389.83 398.5,414.17 398.5,426.17 
		398.5,462.5 398.5,498.83 398.5,535.17 398.5,537.6 398.5,550 	"/>
	<polyline display="inline" fill="none" stroke="#808285" stroke-miterlimit="10" points="434.83,80.3 434.83,99.17 434.83,135.5 
		434.83,171.83 434.83,208.17 434.83,244.5 434.83,280.83 434.83,317.17 434.83,353.5 434.83,387.17 434.83,389.83 434.83,426.17 
		434.83,462.5 434.83,498.83 434.83,535.17 434.83,537.6 434.83,550 	"/>
	<polyline display="inline" fill="none" stroke="#808285" stroke-miterlimit="10" points="471.16,92.63 471.16,99.17 471.16,135.5 
		471.16,171.83 471.16,208.17 471.16,244.5 471.16,280.83 471.16,317.17 471.16,349.17 471.16,353.5 471.16,389.83 471.16,426.17 
		471.16,462.5 471.16,498.83 471.16,535.17 471.16,537.6 471.16,550 	"/>
	<polyline display="inline" fill="none" stroke="#808285" stroke-miterlimit="10" points="507.5,110.83 507.5,135.5 507.5,171.83 
		507.5,208.17 507.5,244.5 507.5,280.83 507.5,313.17 507.5,317.17 507.5,353.5 507.5,389.83 507.5,426.17 507.5,462.5 
		507.5,498.83 507.5,535.17 507.5,537.6 507.5,550 	"/>
	<polyline display="inline" fill="none" stroke="#808285" stroke-miterlimit="10" points="543.83,550 543.83,537.6 543.83,535.17 
		543.83,498.83 543.83,462.5 543.83,426.17 543.83,389.83 543.83,353.5 543.83,317.17 543.83,280.83 543.83,256.17 543.83,244.5 
		543.83,208.17 543.83,171.83 543.83,136.35 543.83,135.5 	"/>
	<polyline display="inline" fill="none" stroke="#808285" stroke-miterlimit="10" points="580.16,171.83 580.16,172.01 
		580.16,208.17 580.16,214.34 580.16,244.5 580.16,280.83 580.16,317.17 580.16,353.5 580.16,389.83 580.16,426.17 580.16,462.5 
		580.16,498.83 580.16,535.17 580.16,537.6 580.16,547.99 	"/>
	<polyline display="inline" fill="none" stroke="#808285" stroke-miterlimit="10" points="616.5,494.36 616.5,462.5 616.5,426.17 
		616.5,389.83 616.5,353.5 616.5,317.17 616.5,280.83 616.5,244.5 616.5,225.66 	"/>
	<polyline display="inline" fill="none" stroke="#808285" stroke-miterlimit="10" points="174.66,498.83 187.2,498.83 
		216.83,498.83 241.89,498.83 253.17,498.83 264.45,498.83 273.5,498.83 289.5,498.83 305.5,498.83 309.83,498.83 325.83,498.83 
		341.83,498.83 346.16,498.83 362.16,498.83 378.16,498.83 382.5,498.83 398.5,498.83 414.5,498.83 418.83,498.83 434.83,498.83 
		450.83,498.83 455.16,498.83 471.16,498.83 487.16,498.83 491.5,498.83 507.5,498.83 523.5,498.83 527.83,498.83 543.83,498.83 
		559.83,498.83 563.83,498.83 580.16,498.83 595.83,498.83 599.83,498.83 614.12,498.83 	"/>
	<polyline display="inline" fill="none" stroke="#808285" stroke-miterlimit="10" points="174.66,462.5 187.2,462.5 216.83,462.5 
		253.17,462.5 281.18,462.5 289.5,462.5 297.82,462.5 325.83,462.5 346.18,462.5 362.16,462.5 378.14,462.5 382.5,462.5 
		398.5,462.5 414.5,462.5 418.83,462.5 434.83,462.5 450.83,462.5 455.16,462.5 471.16,462.5 487.16,462.5 491.5,462.5 507.5,462.5 
		523.5,462.5 527.83,462.5 543.83,462.5 559.83,462.5 563.83,462.5 580.16,462.5 595.83,462.5 599.83,462.5 616.5,462.5 
		630.79,462.5 	"/>
	<polyline display="inline" fill="none" stroke="#808285" stroke-miterlimit="10" points="174.66,426.17 187.2,426.17 
		216.83,426.17 253.17,426.17 289.5,426.17 325.83,426.17 362.16,426.17 383,426.17 398.5,426.17 414,426.17 418.83,426.17 
		434.83,426.17 450.83,426.17 455.16,426.17 471.16,426.17 487.16,426.17 491.5,426.17 507.5,426.17 523.5,426.17 527.83,426.17 
		543.83,426.17 559.83,426.17 563.83,426.17 580.16,426.17 595.83,426.17 599.83,426.17 616.5,426.17 631.83,426.17 636.5,426.17 
		641.86,426.17 	"/>
	<polyline display="inline" fill="none" stroke="#808285" stroke-miterlimit="10" points="174.66,389.83 187.2,389.83 
		216.83,389.83 253.17,389.83 289.5,389.83 325.83,389.83 362.16,389.83 398.5,389.83 425.99,389.83 434.83,389.83 443.67,389.83 
		455.16,389.83 471.16,389.83 487.16,389.83 491.5,389.83 507.5,389.83 523.5,389.83 527.83,389.83 543.83,389.83 559.83,389.83 
		563.83,389.83 580.16,389.83 595.83,389.83 599.83,389.83 616.5,389.83 631.83,389.83 636.5,389.83 647.95,389.83 	"/>
	<polyline display="inline" fill="none" stroke="#808285" stroke-miterlimit="10" points="174.66,353.5 187.2,353.5 216.83,353.5 
		253.17,353.5 289.5,353.5 325.83,353.5 362.16,353.5 398.5,353.5 434.83,353.5 460.22,353.5 471.16,353.5 482.1,353.5 491.5,353.5 
		507.5,353.5 523.5,353.5 527.83,353.5 543.83,353.5 559.83,353.5 563.83,353.5 580.16,353.5 595.83,353.5 599.83,353.5 
		616.5,353.5 631.83,353.5 636.5,353.5 649.41,353.5 	"/>
	<polyline display="inline" fill="none" stroke="#808285" stroke-miterlimit="10" points="174.66,317.17 187.2,317.17 
		216.83,317.17 253.17,317.17 289.5,317.17 325.83,317.17 362.16,317.17 398.5,317.17 434.83,317.17 471.16,317.17 496.93,317.17 
		507.5,317.17 518.07,317.17 527.83,317.17 543.83,317.17 559.83,317.17 563.83,317.17 580.16,317.17 595.83,317.17 599.83,317.17 
		616.5,317.17 631.83,317.17 636.5,317.17 646.31,317.17 	"/>
	<polyline display="inline" fill="none" stroke="#808285" stroke-miterlimit="10" points="174.66,280.83 187.2,280.83 
		216.83,280.83 253.17,280.83 289.5,280.83 325.83,280.83 362.16,280.83 398.5,280.83 434.83,280.83 471.16,280.83 507.5,280.83 
		527.83,280.83 543.83,280.83 559.83,280.83 563.83,280.83 580.16,280.83 595.83,280.83 599.83,280.83 616.5,280.83 631.83,280.83 
		636.5,280.83 638.5,280.83 	"/>
	<polyline display="inline" fill="none" stroke="#808285" stroke-miterlimit="10" points="174.66,244.5 187.2,244.5 216.83,244.5 
		253.17,244.5 289.5,244.5 325.83,244.5 362.16,244.5 398.5,244.5 434.83,244.5 471.16,244.5 507.5,244.5 543.83,244.5 
		563.83,244.5 580.16,244.5 595.83,244.5 599.83,244.5 616.5,244.5 625.53,244.5 	"/>
	<polyline display="inline" fill="none" stroke="#808285" stroke-miterlimit="10" points="606.54,208.17 599.83,208.17 
		580.16,208.17 543.83,208.17 507.5,208.17 471.16,208.17 434.83,208.17 398.5,208.17 362.16,208.17 325.83,208.17 289.5,208.17 
		253.17,208.17 216.83,208.17 187.2,208.17 174.66,208.17 	"/>
	<polyline display="inline" fill="none" stroke="#808285" stroke-miterlimit="10" points="580.16,171.83 580.01,171.83 
		543.83,171.83 507.5,171.83 471.16,171.83 434.83,171.83 398.5,171.83 362.16,171.83 325.83,171.83 289.5,171.83 253.17,171.83 
		216.83,171.83 187.2,171.83 174.66,171.83 	"/>
	<polyline display="inline" fill="none" stroke="#808285" stroke-miterlimit="10" points="177.2,135.5 187.2,135.5 216.83,135.5 
		253.17,135.5 289.5,135.5 325.83,135.5 362.16,135.5 398.5,135.5 434.83,135.5 471.16,135.5 507.5,135.5 542.8,135.5 543.83,135.5 
			"/>
	<polyline display="inline" fill="none" stroke="#808285" stroke-miterlimit="10" points="234.24,99.17 253.17,99.17 289.5,99.17 
		325.83,99.17 362.16,99.17 398.5,99.17 434.83,99.17 471.16,99.17 485.76,99.17 	"/>
</g>
<g>
	<path fill="#3EBFEF" d="M378.109,162.036l-0.007,19.122C378.105,181.211,378.107,172.886,378.109,162.036z"/>
	<path fill="#ED9A40" d="M399.495,29.007l-77.791-0.011c-10.796-0.001-19.551,8.749-19.553,19.547s8.75,19.551,19.549,19.554
		l21.368,0.002l-0.015,103.604c0.002-18.769,0.009-58.938,0.015-58.823l35.039,0.004c0.005-0.097,0.003,28.921,0.002,49.153
		l0.014-93.932l21.365,0.002c10.799,0.001,19.553-8.75,19.555-19.549C419.045,37.762,410.291,29.008,399.495,29.007z"/>
</g>
<g id="gear">
	<g>
		<g>
			<path fill="#808285" d="M332.433,106.335c-41.957,4.563-80.401,19.096-113.247,40.991c-5.186,3.44-10.226,7.078-15.118,10.88
				c-1.668,1.304-3.323,2.621-4.954,3.965l-0.008,0.007c-1.542,1.261-3.07,2.53-4.569,3.837c-2.656,2.268-5.26,4.598-7.81,6.983
				c-0.839,0.778-1.666,1.556-2.484,2.35l-0.005,0.005c-1.782,1.698-3.54,3.438-5.259,5.197c-4.065,4.118-7.977,8.369-11.739,12.755
				c-1.809,2.111-3.589,4.239-5.331,6.408l0.115,0.094c-14.577,17.84-41.055,20.466-59.293,5.833l-10.848-8.695
				c-13.208,22.008-23.69,45.755-31.024,70.749l13.457,2.144c23.153,3.702,39.186,25.383,35.769,48.447
				c-3.409,23.057-24.967,38.735-48.126,35.042l-13.479-2.152c-0.074,7.631,0.154,15.321,0.646,23.056
				c0.346,5.166,0.807,10.34,1.41,15.551c1.511,13.098,3.823,25.921,6.874,38.427l12.303-4.695
				c21.757-8.307,46.402,2.628,55.022,24.457c8.63,21.82-2.051,46.244-23.816,54.558l-12.301,4.695
				c2.254,3.996,4.594,7.938,7.011,11.816c4.681,7.539,9.683,14.846,14.967,21.92c7.525,10.095,15.633,19.7,24.271,28.771
				l7.89-9.813c14.543-18.092,41.206-20.824,59.559-6.072c18.351,14.751,21.412,41.381,6.868,59.472l-7.831,9.739
				c22.506,13.562,46.759,24.347,72.241,31.948l1.726-11.994c3.332-23.063,24.81-38.846,47.997-35.226
				c23.183,3.612,39.262,25.252,35.944,48.316l-1.721,11.917c12.27,0.217,24.665-0.302,37.148-1.571
				c13.373-1.367,26.449-3.569,39.186-6.533l-4.354-10.889c-8.701-21.782,1.86-46.245,23.606-54.655
				c21.75-8.394,46.418,2.477,55.119,24.261l4.387,10.998c0.107-0.065,0.216-0.115,0.322-0.178
				c5.376-2.986,10.639-6.126,15.797-9.425c3.084-1.961,6.129-3.977,9.113-6.054c3.329-2.279,6.601-4.628,9.813-7.057
				c6.246-4.672,12.291-9.575,18.13-14.702c2.816-2.475,5.592-4.994,8.316-7.575l-9.016-7.19
				c-18.363-14.647-21.566-41.203-7.158-59.363l-0.083-0.068c40.726-50.663,62.129-116.864,54.549-186.602
				C597.253,191.948,471.895,91.175,332.433,106.335z M275.083,290.692l168.126,135.155c-1.467,1.825-2.983,3.594-4.57,5.321
				c-1.386,1.504-2.82,2.977-4.296,4.397c-1.239,1.216-2.521,2.397-3.83,3.542c-2.015,1.769-4.097,3.465-6.263,5.07
				c-1.107,0.847-2.242,1.655-3.387,2.442c-1.031,0.714-2.08,1.412-3.15,2.094c-1.774,1.144-3.602,2.226-5.452,3.252
				c-0.579,0.325-1.167,0.646-1.759,0.948c-1.227,0.666-2.484,1.299-3.747,1.905c-2.759,1.334-5.601,2.544-8.502,3.639
				c-8.431,3.173-17.429,5.327-26.852,6.288c-31.443,3.207-61.28-7.506-83.283-27.146c-0.729-0.641-1.446-1.299-2.147-1.961
				l-0.008-0.004c-1.07-1.011-2.119-2.049-3.157-3.097c-3.421-3.491-6.604-7.209-9.535-11.137c-1.825-2.451-3.558-4.976-5.176-7.575
				c-1.809-2.899-3.48-5.88-5.002-8.963c-5.432-10.922-9.101-22.922-10.571-35.687c-0.216-1.799-0.368-3.589-0.482-5.374
				c-0.603-9.097-0.03-18.021,1.588-26.613C256.889,319.938,264.375,304.012,275.083,290.692z"/>
		</g>
	</g>
</g>
<g>
	<path fill="#D1D3D4" d="M186.017,219.092l347.741,279.547c35.771-44.5,54.565-102.641,47.906-163.891
		C568.35,212.271,458.259,123.77,335.768,137.087c-36.835,4.005-70.604,16.768-99.452,36c-4.552,3.016-8.978,6.212-13.272,9.551
		c-1.466,1.15-2.92,2.301-4.35,3.479l-0.005,0.009c-1.354,1.108-2.701,2.223-4.018,3.37c-2.335,1.994-4.621,4.041-6.859,6.137
		c-0.736,0.681-1.463,1.358-2.184,2.06l-0.007,0.008c-1.56,1.493-3.104,3.021-4.614,4.564c-3.571,3.615-7.01,7.347-10.311,11.2
		C189.105,215.315,187.543,217.191,186.017,219.092z"/>
</g>
<path fill="#F26522" d="M341.075,350.655c0.089-0.209,0.172-0.424,0.269-0.629c-0.248,0.546-0.475,1.094-0.664,1.652
	c0.11-0.318,0.231-0.624,0.36-0.938C341.051,350.716,341.06,350.688,341.075,350.655z"/>
<path fill="#414098" d="M344.117,345.515c-0.11,0.135-0.218,0.273-0.322,0.415l34.598,27.813l160.743-67.823
	c10.628-4.483,15.622-16.744,11.129-27.385c-4.488-10.634-16.753-15.617-27.385-11.128l-94.339,39.809l-76.295,32.19
	C348.958,340.793,346.213,342.921,344.117,345.515z"/>
<path fill="#3EBFEF" d="M430.101,238.554l-85.983,106.961c-0.11,0.135-0.218,0.273-0.322,0.415l32.566,26.179
	c0.117-0.131,0.227-0.268,0.335-0.404l85.984-106.958c7.229-8.995,5.806-22.15-3.194-29.388
	C450.486,228.124,437.33,229.562,430.101,238.554z"/>
<line fill="none" stroke="#808285" stroke-width="3" stroke-linecap="round" stroke-miterlimit="10" x1="498.256" y1="188.017" x2="490.111" y2="198.149"/>
<line fill="none" stroke="#808285" stroke-width="3" stroke-linecap="round" stroke-miterlimit="10" x1="459.293" y1="162.938" x2="453.443" y2="174.547"/>
<line fill="none" stroke="#808285" stroke-width="3" stroke-linecap="round" stroke-miterlimit="10" x1="415.95" y1="146.547" x2="412.653" y2="159.122"/>
<line fill="none" stroke="#808285" stroke-width="3" stroke-linecap="round" stroke-miterlimit="10" x1="370.141" y1="139.566" x2="369.542" y2="152.554"/>
<line fill="none" stroke="#808285" stroke-width="3" stroke-linecap="round" stroke-miterlimit="10" x1="323.88" y1="142.311" x2="326.01" y2="155.137"/>
<line fill="none" stroke="#808285" stroke-width="3" stroke-linecap="round" stroke-miterlimit="10" x1="279.215" y1="154.653" x2="283.976" y2="166.753"/>
<line fill="none" stroke="#808285" stroke-width="3" stroke-linecap="round" stroke-miterlimit="10" x1="238.112" y1="176.052" x2="245.294" y2="186.89"/>
<line fill="none" stroke="#808285" stroke-width="3" stroke-linecap="round" stroke-miterlimit="10" x1="202.384" y1="205.563" x2="211.674" y2="214.661"/>
<line fill="none" stroke="#808285" stroke-width="3" stroke-linecap="round" stroke-miterlimit="10" x1="530.345" y1="220.055" x2="520.262" y2="228.263"/>
<line fill="none" stroke="#808285" stroke-width="3" stroke-linecap="round" stroke-miterlimit="10" x1="555.668" y1="258.863" x2="544.092" y2="264.786"/>
<line fill="none" stroke="#808285" stroke-width="3" stroke-linecap="round" stroke-miterlimit="10" x1="572.326" y1="302.103" x2="559.77" y2="305.479"/>
<line fill="none" stroke="#808285" stroke-width="3" stroke-linecap="round" stroke-miterlimit="10" x1="579.586" y1="347.872" x2="566.604" y2="348.549"/>
<line fill="none" stroke="#808285" stroke-width="3" stroke-linecap="round" stroke-miterlimit="10" x1="577.128" y1="394.146" x2="564.289" y2="392.098"/>
<line fill="none" stroke="#808285" stroke-width="3" stroke-linecap="round" stroke-miterlimit="10" x1="565.063" y1="438.886" x2="552.936" y2="434.199"/>
<line fill="none" stroke="#808285" stroke-width="3" stroke-linecap="round" stroke-miterlimit="10" x1="543.921" y1="480.121" x2="533.039" y2="473.006"/>
<g id="up" display="none">
	<path display="inline" fill="#27AAE1" d="M232.833,528.167c0-8.837-7.164-16-16-16l0,0c-8.836,0-16,7.163-16,16v15
		c0,8.837,7.164,16,16,16l0,0c8.836,0,16-7.163,16-16V528.167z"/>
	<path display="inline" fill="#27AAE1" d="M269.166,510.167c0-8.837-7.164-16-16-16l0,0c-8.836,0-16,7.163-16,16v33
		c0,8.837,7.164,16,16,16l0,0c8.836,0,16-7.163,16-16V510.167z"/>
	<path display="inline" fill="#27AAE1" d="M305.499,476.167c0-8.837-7.164-16-16-16l0,0c-8.836,0-16,7.163-16,16v67
		c0,8.837,7.164,16,16,16l0,0c8.836,0,16-7.163,16-16V476.167z"/>
	<path display="inline" fill="#27AAE1" d="M341.832,483.167c0-8.837-7.164-16-16-16l0,0c-8.836,0-16,7.163-16,16v60
		c0,8.837,7.164,16,16,16l0,0c8.836,0,16-7.163,16-16V483.167z"/>
	<path display="inline" fill="#27AAE1" d="M378.164,463.167c0-8.837-7.163-16-16-16l0,0c-8.836,0-16,7.163-16,16v80
		c0,8.837,7.164,16,16,16l0,0c8.837,0,16-7.163,16-16V463.167z"/>
	<path display="inline" fill="#27AAE1" d="M414.497,405.667c0-8.837-7.163-16-16-16l0,0c-8.836,0-15.999,7.163-15.999,16v137.5
		c0,8.837,7.163,16,15.999,16l0,0c8.837,0,16-7.163,16-16V405.667z"/>
	<path display="inline" fill="#27AAE1" d="M450.83,393.73c0-8.838-7.163-16-16-16l0,0c-8.836,0-15.999,7.162-15.999,16v149.437
		c0,8.837,7.163,16,15.999,16l0,0c8.837,0,16-7.163,16-16V393.73z"/>
	<path display="inline" fill="#27AAE1" d="M487.163,375.91c0-8.837-7.163-16-16-16l0,0c-8.836,0-15.999,7.163-15.999,16v167.257
		c0,8.837,7.163,16,15.999,16l0,0c8.837,0,16-7.163,16-16V375.91z"/>
	<path display="inline" fill="#27AAE1" d="M523.496,306.083c0-8.837-7.163-16-16-16l0,0c-8.836,0-15.999,7.163-15.999,16v237.083
		c0,8.837,7.163,16,15.999,16l0,0c8.837,0,16-7.163,16-16V306.083z"/>
	<path display="inline" fill="#27AAE1" d="M559.829,285c0-8.837-7.163-16-16-16l0,0c-8.836,0-15.999,7.163-15.999,16v258.167
		c0,8.837,7.163,16,15.999,16l0,0c8.837,0,16-7.163,16-16V285z"/>
	<path display="inline" fill="#27AAE1" d="M595.83,224.17v303.79c-1.72,2.42-3.5,4.83-5.32,7.21c-0.608,0.82-1.24,1.62-1.87,2.43
		c-2.729,3.512-5.56,6.98-8.479,10.392c-1.771,2.068-3.57,4.12-5.41,6.148c-0.91,1-1.83,2-2.75,2.99
		c-4.88-2.75-8.17-7.97-8.17-13.96v-319c0-4.41,1.79-8.41,4.689-11.31c2.891-2.9,6.891-4.69,11.311-4.69c0.11,0,0.22,0,0.33,0.01
		C588.85,208.35,595.83,215.45,595.83,224.17z"/>
	<path display="inline" fill="#27AAE1" d="M631.83,260.28v199.46c-0.34,0.92-0.68,1.84-1.04,2.76
		c-4.08,10.84-8.84,21.48-14.29,31.86c-0.11,0.22-0.22,0.438-0.34,0.658c-0.67,1.271-1.352,2.54-2.04,3.812
		c-4.36,7.97-9.12,15.78-14.29,23.39V197.8c2.32,3.42,4.56,6.88,6.71,10.37c3.55,5.74,6.87,11.57,9.96,17.49
		c3.25,6.19,6.26,12.47,9.03,18.84C627.79,249.71,629.89,254.97,631.83,260.28z"/>
	<path display="inline" fill="#27AAE1" d="M636.5,445.92V274.11c1.95,6.26,3.67,12.57,5.18,18.92c0.552,2.35,1.08,4.7,1.57,7.06
		v0.01c0.47,2.22,0.92,4.44,1.32,6.67c0.738,3.91,1.39,7.84,1.948,11.78c0.19,1.29,0.37,2.57,0.53,3.86v0.01
		c0.37,2.78,0.69,5.58,0.96,8.37c0.67,6.56,1.11,13.13,1.32,19.71C650.38,382.65,646.1,414.93,636.5,445.92z"/>
	<path display="inline" fill="#808285" d="M588.64,537.6c-4.39,5.642-9.02,11.16-13.89,16.54c-0.91,1-1.83,2-2.75,2.99
		c-1.38,1.48-2.77,2.95-4.2,4.41H163.26V147.63c7.7-7.14,15.69-13.79,23.94-19.93V537.6H588.64z"/>
	<polygon display="inline" fill="#F26522" points="225.528,485.548 208.137,475.669 228.822,439.256 247.309,448.499 
		263.902,398.463 289.902,416.681 306.374,406.729 322.115,419.632 337.866,385.021 355.541,398.197 372.096,317.838 
		396.369,341.913 411.559,315.879 430.938,330.638 447.215,295.055 464.328,309.498 480.721,216.355 503.799,240.286 
		519.713,198.927 538.087,217.451 554.067,146.596 575.097,167.625 606.259,64.713 625.401,70.509 584.563,205.375 565.591,186.404 
		549.571,257.432 527.279,234.956 511.193,276.764 493.605,258.527 477.998,347.206 454.445,327.328 438.722,361.705 
		417.435,345.494 400.625,374.305 384.232,358.045 368.787,433.02 345.797,415.88 329.548,451.585 304.623,431.154 289.095,440.536 
		274.429,430.26 259.022,476.718 236.843,465.627 	"/>
	<polygon display="inline" fill="#F26522" points="545.427,95.896 661.88,131.404 619.659,48.794 	"/>
</g>
<g id="clouds" display="none">
	<path display="inline" fill="#27AAE1" d="M616.16,495.02c-11.05,20.962-24.86,40.842-41.41,59.12
		c-3.25,3.58-6.59,7.102-10.05,10.562c-15.95,15.95-33.29,29.64-51.642,41.08c-1.75,1.1-3.52,2.18-5.289,3.229
		c-8.221,4.892-16.631,9.33-25.189,13.33c-3.561,1.67-7.15,3.25-10.76,4.76c-4.88,2.052-9.82,3.95-14.79,5.711
		c-1.33,0.471-2.67,0.939-4.012,1.391c-6.448,2.188-12.97,4.14-19.538,5.85c-9.57,2.51-19.24,4.51-28.972,6.021
		c-3.22,0.5-6.46,0.938-9.7,1.33h-0.01c-3.93,0.479-7.87,0.869-11.818,1.18h-0.012c-0.818,0.07-1.648,0.13-2.47,0.18
		c-1.78,0.13-3.55,0.24-5.33,0.33c-6.14,0.32-12.29,0.45-18.43,0.37c-13.32-0.149-26.641-1.21-39.84-3.189
		c-7.5-1.119-14.97-2.539-22.38-4.25c-9.08-2.101-18.08-4.641-26.96-7.631c-41.03-13.778-79.58-37.01-112.26-69.688
		c-18.09-18.09-33.28-37.98-45.58-59.09c-4.24-7.262-8.13-14.67-11.67-22.21c-1.63-3.44-3.18-6.91-4.65-10.41
		c-0.71-1.66-1.4-3.33-2.07-5c-2.15-5.352-4.13-10.75-5.94-16.2c-1.09-3.25-2.12-6.521-3.07-9.8c-1.08-3.63-2.08-7.271-2.99-10.94
		c-1.8-7.1-3.32-14.25-4.56-21.438c-0.81-4.66-1.5-9.33-2.07-14.021c-0.69-5.54-1.21-11.1-1.57-16.67
		C65.9,298.66,93.96,216.64,155.3,155.3c113.05-113.05,296.352-113.05,409.4,0c34.01,34.01,57.78,74.37,71.319,117.27
		c2.149,6.76,4.029,13.59,5.659,20.46c0.552,2.35,1.08,4.7,1.57,7.06v0.01c0.47,2.22,0.92,4.44,1.32,6.67
		c0.738,3.91,1.39,7.84,1.948,11.78c0.19,1.29,0.37,2.57,0.53,3.86v0.01c0.37,2.78,0.69,5.58,0.96,8.37
		c0.67,6.56,1.11,13.13,1.32,19.71C650.95,400.1,639.89,450.03,616.16,495.02z"/>
	<g display="inline">
		<path fill="#D1D3D4" d="M208.01,358.38l-4.2,4.2L178.39,388l-5.35,5.35L93.4,472.99c-0.71-1.66-1.4-3.33-2.07-5
			c-2.15-5.352-4.13-10.75-5.94-16.2c-1.09-3.25-2.12-6.521-3.07-9.8c-1.08-3.63-2.08-7.271-2.99-10.94l73.89-73.89l22.59-22.59
			l4.2-4.2c7.73-7.73,20.27-7.73,28,0C215.74,338.1,215.74,350.64,208.01,358.38z"/>
		<path fill="#D1D3D4" d="M208.01,358.38l-4.2,4.2L178.39,388l-5.35,5.35L93.4,472.99c-0.71-1.66-1.4-3.33-2.07-5
			c-2.15-5.352-4.13-10.75-5.94-16.2c-1.09-3.25-2.12-6.521-3.07-9.8c-1.08-3.63-2.08-7.271-2.99-10.94l73.89-73.89l22.59-22.59
			l4.2-4.2c7.73-7.73,20.27-7.73,28,0C215.74,338.1,215.74,350.64,208.01,358.38z"/>
		<path fill="#D1D3D4" d="M188.21,427.12l-4.2,4.2l-74.29,74.29c-4.24-7.262-8.13-14.67-11.67-22.21
			c-1.63-3.44-3.18-6.91-4.65-10.41c-0.71-1.66-1.4-3.33-2.07-5l64.68-64.682l4.2-4.198c3.57-3.57,8.16-5.49,12.83-5.761
			c2.34-0.141,4.7,0.131,6.96,0.819c3,0.92,5.83,2.562,8.21,4.94C195.94,406.84,195.94,419.38,188.21,427.12z"/>
		<path fill="#D1D3D4" d="M180,394.17c0.21,4.26-1.31,8.59-4.57,11.84l-3.31,3.32L98.05,483.4c-1.63-3.44-3.18-6.91-4.65-10.41
			c-0.71-1.66-1.4-3.33-2.07-5c-2.15-5.352-4.13-10.75-5.94-16.2l64.59-64.59l3.32-3.32c6.11-6.11,16.02-6.11,22.14,0
			c1.24,1.24,2.22,2.63,2.95,4.12C179.36,389.939,179.9,392.05,180,394.17z"/>
		<path fill="#D1D3D4" d="M180,394.17c0.21,4.26-1.31,8.59-4.57,11.84l-3.31,3.32L98.05,483.4c-1.63-3.44-3.18-6.91-4.65-10.41
			c-0.71-1.66-1.4-3.33-2.07-5c-2.15-5.352-4.13-10.75-5.94-16.2l64.59-64.59l3.32-3.32c6.11-6.11,16.02-6.11,22.14,0
			c1.24,1.24,2.22,2.63,2.95,4.12C179.36,389.939,179.9,392.05,180,394.17z"/>
		<path fill="#D1D3D4" d="M148.08,376.221l-4.2,4.209L82.32,441.99c-1.08-3.63-2.08-7.271-2.99-10.94
			c-1.8-7.1-3.32-14.25-4.56-21.438c-0.81-4.66-1.5-9.33-2.07-14.021l11.94-11.939l31.23-31.229l4.2-4.2
			c7.74-7.73,20.27-7.73,28.01,0c2.56,2.56,4.28,5.66,5.14,8.94C154.96,363.75,153.24,371.061,148.08,376.221z"/>
		<path fill="#D1D3D4" d="M83.52,400.86l-2.77,2.77l-5.98,5.98c-0.81-4.66-1.5-9.33-2.07-14.021c-0.69-5.54-1.21-11.101-1.57-16.67
			c4.3-1.05,9.04,0.101,12.39,3.45c0.41,0.41,0.79,0.84,1.12,1.279C88.6,388.779,88.22,396.16,83.52,400.86z"/>
	</g>
	<g display="inline">
		<path fill="#D1D3D4" d="M647.05,322.41v0.01l-24.92,24.91l-2.6,2.6c-2.222,2.22-5.07,3.41-7.972,3.58
			c-3.38,0.2-6.828-1-9.408-3.58c-0.102-0.1-0.2-0.2-0.302-0.31c-1.43-1.53-2.39-3.34-2.89-5.24c-1.08-4.09-0.02-8.62,3.19-11.83
			l2.608-2.6l36.92-36.92c0.551,2.35,1.08,4.7,1.57,7.06v0.01c0.47,2.22,0.92,4.44,1.32,6.67c0.738,3.91,1.39,7.84,1.948,11.78
			C646.71,319.84,646.89,321.12,647.05,322.41z"/>
		<path fill="#D1D3D4" d="M647.05,322.41v0.01l-24.92,24.91l-2.6,2.6c-2.222,2.22-5.07,3.41-7.972,3.58
			c-3.38,0.2-6.828-1-9.408-3.58c-0.102-0.1-0.2-0.2-0.302-0.31c-1.43-1.53-2.39-3.34-2.89-5.24c-1.08-4.09-0.02-8.62,3.19-11.83
			l2.608-2.6l36.92-36.92c0.551,2.35,1.08,4.7,1.57,7.06v0.01c0.47,2.22,0.92,4.44,1.32,6.67c0.738,3.91,1.39,7.84,1.948,11.78
			C646.71,319.84,646.89,321.12,647.05,322.41z"/>
		<path fill="#D1D3D4" d="M649.33,350.5l-39.48,39.48l-2.608,2.6c-4.8,4.8-12.58,4.8-17.38,0c-4.79-4.79-4.79-12.58,0-17.37
			l2.608-2.61l10.271-10.27l8.819-8.82l34.96-34.96c0.189,1.29,0.369,2.57,0.529,3.86v0.01c0.37,2.78,0.69,5.58,0.96,8.37
			C648.68,337.35,649.12,343.92,649.33,350.5z"/>
		<path fill="#D1D3D4" d="M647.05,322.42c0.37,2.78,0.69,5.58,0.96,8.37l-29.479,29.48l-2.062,2.06c-3.79,3.79-9.938,3.79-13.729,0
			c-3.472-3.47-3.76-8.91-0.892-12.71c0.271-0.36,0.57-0.7,0.892-1.02l2.06-2.06l39.771-39.77c0.738,3.91,1.39,7.84,1.949,11.78
			c0.189,1.29,0.369,2.57,0.529,3.86L647.05,322.42L647.05,322.42z"/>
		<path fill="#D1D3D4" d="M647.05,322.42c0.37,2.78,0.69,5.58,0.96,8.37l-29.479,29.48l-2.062,2.06c-3.79,3.79-9.938,3.79-13.729,0
			c-3.472-3.47-3.76-8.91-0.892-12.71c0.271-0.36,0.57-0.7,0.892-1.02l2.06-2.06l39.771-39.77c0.738,3.91,1.39,7.84,1.949,11.78
			c0.189,1.29,0.369,2.57,0.529,3.86L647.05,322.42L647.05,322.42z"/>
		<path fill="#D1D3D4" d="M643.25,300.09v0.01l-44.29,44.28l-14.02,14.02l-2.602,2.6c-4.8,4.8-12.58,4.8-17.38,0.01
			c-4.8-4.8-4.8-12.58,0-17.38l2.61-2.61l8.858-8.86l48.38-48.38l11.21-11.21c2.15,6.76,4.03,13.59,5.66,20.46
			C642.23,295.38,642.76,297.73,643.25,300.09z"/>
		<path fill="#D1D3D4" d="M624.115,282.987c-3.169-3.167-8.308-3.169-11.473,0l-1.722,1.722l-33.567,33.565l-1.722,1.721
			c-3.166,3.167-3.169,8.305-0.001,11.473c3.169,3.167,8.307,3.167,11.474-0.001l1.721-1.719l33.569-33.566l1.721-1.721
			C627.283,291.291,627.283,286.156,624.115,282.987z"/>
	</g>
	<g display="inline">
		<path fill="#D1D3D4" d="M361.804,108.366c-2.616-2.616-6.854-2.616-9.472,0l-1.421,1.42l-41.763,41.761l-1.421,1.421
			c-2.615,2.615-2.615,6.856,0,9.471c2.615,2.616,6.855,2.616,9.472,0l1.422-1.419l41.762-41.763l1.421-1.421
			C364.419,115.221,364.419,110.98,361.804,108.366z"/>
		<path fill="#D1D3D4" d="M361.804,108.366c-2.616-2.616-6.854-2.616-9.472,0l-1.421,1.42l-41.763,41.761l-1.421,1.421
			c-2.615,2.615-2.615,6.856,0,9.471c2.615,2.616,6.855,2.616,9.472,0l1.422-1.419l41.762-41.763l1.421-1.421
			C364.419,115.221,364.419,110.98,361.804,108.366z"/>
		<path fill="#D1D3D4" d="M355.107,131.613c-2.616-2.615-6.855-2.615-9.472,0.001l-1.421,1.42l-41.763,41.762l-1.422,1.42
			c-2.614,2.615-2.614,6.856,0,9.471c2.616,2.616,6.856,2.616,9.472,0l1.421-1.42l41.765-41.762l1.42-1.42
			C357.722,138.469,357.722,134.228,355.107,131.613z"/>
		<path fill="#D1D3D4" d="M350.786,126.462c-2.067-2.067-5.419-2.067-7.485,0.001l-1.123,1.122l-33.007,33.005l-1.123,1.124
			c-2.067,2.066-2.067,5.418-0.001,7.485c2.067,2.067,5.419,2.067,7.485,0l1.124-1.122l33.007-33.006l1.123-1.122
			C352.854,131.88,352.853,128.529,350.786,126.462z"/>
		<path fill="#D1D3D4" d="M350.786,126.462c-2.067-2.067-5.419-2.067-7.485,0.001l-1.123,1.122l-33.007,33.005l-1.123,1.124
			c-2.067,2.066-2.067,5.418-0.001,7.485c2.067,2.067,5.419,2.067,7.485,0l1.124-1.122l33.007-33.006l1.123-1.122
			C352.854,131.88,352.853,128.529,350.786,126.462z"/>
		<path fill="#D1D3D4" d="M341.534,114.401c-2.615-2.615-6.856-2.615-9.472,0.001l-1.422,1.42l-41.763,41.761l-1.42,1.421
			c-2.616,2.614-2.616,6.856-0.001,9.471c2.616,2.615,6.855,2.616,9.471,0l1.422-1.418l41.763-41.763l1.42-1.421
			C344.148,121.257,344.148,117.017,341.534,114.401z"/>
		<path fill="#D1D3D4" d="M319.7,125.952c-1.729-1.727-4.527-1.728-6.253,0l-0.938,0.938l-18.296,18.294l-0.938,0.938
			c-1.726,1.726-1.727,4.526,0,6.253c1.727,1.726,4.526,1.726,6.253,0l0.938-0.937l18.297-18.295l0.938-0.938
			C321.426,130.478,321.426,127.679,319.7,125.952z"/>
	</g>
	<g display="inline">
		<path fill="#D1D3D4" d="M554.41,544.51l-49.03,49.03l-8.87,8.88L471.82,627.1c-4.88,2.052-9.82,3.95-14.79,5.71
			c-1.33,0.472-2.67,0.94-4.012,1.392c-6.448,2.188-12.97,4.14-19.538,5.85c-9.57,2.51-19.24,4.51-28.972,6.021
			c-3.22,0.5-6.46,0.938-9.7,1.33h-0.01c-3.93,0.479-7.87,0.869-11.818,1.18h-0.012c-0.818,0.07-1.648,0.13-2.47,0.18
			c-1.78,0.13-3.55,0.24-5.33,0.33c-6.14,0.32-12.29,0.45-18.43,0.37L463.71,542.5l37.39-37.39l6.95-6.96
			c12.812-12.802,33.562-12.802,46.36,0.01C567.22,510.96,567.22,531.71,554.41,544.51z"/>
		<path fill="#D1D3D4" d="M554.41,544.51l-49.03,49.03l-8.87,8.88L471.82,627.1c-4.88,2.052-9.82,3.95-14.79,5.71
			c-1.33,0.472-2.67,0.94-4.012,1.392c-6.448,2.188-12.97,4.14-19.538,5.85c-9.57,2.51-19.24,4.51-28.972,6.021
			c-3.22,0.5-6.46,0.938-9.7,1.33h-0.01c-3.93,0.479-7.87,0.869-11.818,1.18h-0.012c-0.818,0.07-1.648,0.13-2.47,0.18
			c-1.78,0.13-3.55,0.24-5.33,0.33c-6.14,0.32-12.29,0.45-18.43,0.37L463.71,542.5l37.39-37.39l6.95-6.96
			c12.812-12.802,33.562-12.802,46.36,0.01C567.22,510.96,567.22,531.71,554.41,544.51z"/>
		<path fill="#D1D3D4" d="M513.06,605.78c-1.75,1.1-3.52,2.18-5.29,3.229c-8.22,4.892-16.63,9.33-25.188,13.33
			c-3.562,1.67-7.15,3.25-10.76,4.76c-4.88,2.052-9.82,3.95-14.79,5.71c-1.33,0.472-2.67,0.94-4.012,1.392l15.302-15.3l6.96-6.95
			c5.898-5.9,13.5-9.08,21.229-9.53c3.88-0.24,7.79,0.21,11.54,1.36C509.76,604.3,511.44,604.96,513.06,605.78z"/>
		<path fill="#D1D3D4" d="M507.77,609.01c-8.22,4.892-16.63,9.33-25.188,13.33c-3.562,1.67-7.15,3.25-10.76,4.76
			c-4.88,2.052-9.82,3.95-14.79,5.711c-1.33,0.471-2.67,0.939-4.012,1.391c-6.448,2.188-12.97,4.14-19.538,5.85
			c-9.57,2.51-19.24,4.51-28.972,6.021l53.84-53.84l5.5-5.49c10.11-10.12,26.521-10.12,36.642,0c2.04,2.04,3.68,4.35,4.89,6.8
			c1.61,3.229,2.49,6.72,2.67,10.24C508.13,605.52,508.04,607.28,507.77,609.01z"/>
		<path fill="#D1D3D4" d="M507.77,609.01c-8.22,4.892-16.63,9.33-25.188,13.33c-3.562,1.67-7.15,3.25-10.76,4.76
			c-4.88,2.052-9.82,3.95-14.79,5.711c-1.33,0.471-2.67,0.939-4.012,1.391c-6.448,2.188-12.97,4.14-19.538,5.85
			c-9.57,2.51-19.24,4.51-28.972,6.021l53.84-53.84l5.5-5.49c10.11-10.12,26.521-10.12,36.642,0c2.04,2.04,3.68,4.35,4.89,6.8
			c1.61,3.229,2.49,6.72,2.67,10.24C508.13,605.52,508.04,607.28,507.77,609.01z"/>
		<path fill="#D1D3D4" d="M455.19,574.06l-6.95,6.96l-67.74,67.74c-1.78,0.13-3.55,0.24-5.33,0.33c-6.14,0.32-12.29,0.45-18.43,0.37
			c-13.32-0.15-26.641-1.21-39.84-3.19c-7.5-1.118-14.97-2.538-22.38-4.25l55.66-55.658l51.7-51.7l6.96-6.95
			c12.8-12.81,33.562-12.81,46.36-0.01c4.25,4.25,7.09,9.38,8.51,14.8C466.59,553.41,463.75,565.51,455.19,574.06z"/>
		<path fill="#D1D3D4" d="M348.32,614.85l-4.59,4.592L316.9,646.27c-7.5-1.118-14.97-2.538-22.38-4.25
			c-9.08-2.1-18.08-4.64-26.96-7.63l45.56-45.56l4.6-4.59c8.44-8.46,22.15-8.45,30.601,0c0.68,0.67,1.3,1.38,1.859,2.12
			C356.72,594.85,356.09,607.07,348.32,614.85z"/>
	</g>
</g>
<g id="Rocket" display="none">
	<g display="inline">
		<path fill="#808285" d="M501.896,334.108c35.946-35.947-13.097-84.991-49.047-49.042c-35.946,35.946-54.108,76.067-40.564,89.61
			C425.828,388.221,465.947,370.057,501.896,334.108z"/>
	</g>
	<g display="inline">
		<path fill="#808285" d="M424.181,256.394c35.948-35.948-13.094-84.992-49.043-49.043c-35.946,35.946-54.109,76.066-40.566,89.61
			C348.113,310.503,388.233,292.343,424.181,256.394z"/>
	</g>
	<path display="inline" fill="#F26522" d="M273.404,435.223c4.181-1.75,60.639-5.596,76.368-21.323
		c14.868-14.869,4.816-36.542,21.06-34.257c15.426,2.188,7.174,23.408,6.176,27.66c31.543-19.943,41.803-38.314,41.801-63.395
		c-0.002-52.905-64.378-67.241-89.5-42.118c-10.893,10.893-12.058,21.739-12.058,21.739s27.065-13.994,29.701,4.623
		c2.623,18.61-20.792,6.252-36.975,22.432c-16.181,16.182-17.502,34.146-17.502,34.146s30.508-16.176,33.138,2.437
		c2.626,18.617-26.405,10.605-34.957,19.156C283.387,413.592,273.404,435.223,273.404,435.223z"/>
	<g display="inline">
		<path fill="#D1D3D4" d="M641.717,67.528c-7.117-7.117-105.457,9.079-176.098,79.722c-49.309,49.305-81.561,102.588-87.51,139.335
			c20.984,4.051,40.839,18.952,44.433,44.569c36.751-5.898,90.095-38.167,139.454-87.526
			C632.639,172.984,648.834,74.646,641.717,67.528z"/>
	</g>
	<g display="inline">
		<path fill="#F26522" d="M620.141,158.741c21.365-46.683,26.023-86.764,21.576-91.213c-4.438-4.437-44.336,0.188-90.873,21.422
			C522.738,101.771,607.322,186.75,620.141,158.741z"/>
	</g>
	<g display="inline">
		<circle fill="#27AAE1" cx="517.468" cy="191.557" r="30.476"/>
	</g>
	<path display="inline" fill="#808285" d="M466.016,243.23c-20.601-20.598-109.541,80.225-94.883,94.882
		C385.79,352.771,486.613,263.829,466.016,243.23z"/>
</g>
</svg>
