<?xml version="1.0" encoding="utf-8"?>
<!-- Generator: Adobe Illustrator 16.0.0, SVG Export Plug-In . SVG Version: 6.00 Build 0)  -->
<!DOCTYPE svg PUBLIC "-//W3C//DTD SVG 1.1//EN" "http://www.w3.org/Graphics/SVG/1.1/DTD/svg11.dtd">
<svg version="1.1" id="Layer_1" xmlns="http://www.w3.org/2000/svg" xmlns:xlink="http://www.w3.org/1999/xlink" x="0px" y="0px"
	 width="256px" height="72.5px" viewBox="0 64 256 72.5" enable-background="new 0 64 256 72.5" xml:space="preserve">
<g>
	<path fill="#00A1E0" d="M8.223,112.496c-0.199,0.521,0.073,0.631,0.136,0.721c0.599,0.436,1.206,0.75,1.818,1.098
		c3.246,1.723,6.311,2.227,9.517,2.227c6.528,0,10.581-3.473,10.581-9.063v-0.109c0-5.168-4.574-7.045-8.868-8.4l-0.558-0.182
		c-3.237-1.052-6.03-1.959-6.03-4.09v-0.112c0-1.823,1.632-3.165,4.162-3.165c2.811,0,6.147,0.934,8.297,2.122
		c0,0,0.63,0.407,0.862-0.204c0.126-0.326,1.214-3.255,1.328-3.572c0.122-0.345-0.096-0.599-0.318-0.735
		c-2.453-1.492-5.844-2.511-9.353-2.511l-0.652,0.004c-5.976,0-10.146,3.609-10.146,8.782v0.108c0,5.455,4.602,7.223,8.914,8.455
		l0.693,0.213c3.142,0.967,5.849,1.795,5.849,4.008v0.109c0,2.021-1.759,3.527-4.598,3.527c-1.102,0-4.615-0.023-8.41-2.422
		c-0.458-0.266-0.726-0.461-1.079-0.674c-0.186-0.119-0.653-0.322-0.857,0.293L8.223,112.496L8.223,112.496z"/>
	<path fill="#00A1E0" d="M103.796,112.496c-0.199,0.521,0.072,0.631,0.136,0.721c0.599,0.436,1.206,0.75,1.818,1.098
		c3.246,1.723,6.311,2.227,9.516,2.227c6.529,0,10.582-3.473,10.582-9.063v-0.109c0-5.168-4.574-7.045-8.867-8.4l-0.558-0.182
		c-3.237-1.052-6.03-1.959-6.03-4.09v-0.112c0-1.823,1.632-3.165,4.162-3.165c2.811,0,6.147,0.934,8.296,2.122
		c0,0,0.63,0.407,0.862-0.204c0.127-0.326,1.215-3.255,1.328-3.572c0.122-0.345-0.095-0.599-0.317-0.735
		c-2.453-1.492-5.844-2.511-9.353-2.511l-0.652,0.004c-5.976,0-10.146,3.609-10.146,8.782v0.108c0,5.455,4.602,7.223,8.913,8.455
		l0.694,0.213c3.142,0.967,5.853,1.795,5.853,4.008v0.109c0,2.021-1.763,3.527-4.602,3.527c-1.102,0-4.615-0.023-8.41-2.422
		c-0.458-0.266-0.73-0.453-1.074-0.674c-0.118-0.078-0.671-0.291-0.862,0.293L103.796,112.496L103.796,112.496z"/>
	<path fill="#00A1E0" d="M169.041,101.547c0,3.16-0.588,5.648-1.75,7.408c-1.146,1.742-2.882,2.59-5.303,2.59
		c-2.426,0-4.154-0.844-5.282-2.59c-1.143-1.754-1.723-4.248-1.723-7.408c0-3.154,0.58-5.639,1.723-7.38
		c1.128-1.724,2.856-2.562,5.282-2.562c2.421,0,4.156,0.838,5.308,2.562C168.453,95.908,169.041,98.393,169.041,101.547
		 M174.491,95.689c-0.535-1.809-1.369-3.404-2.479-4.732c-1.111-1.333-2.516-2.403-4.186-3.183c-1.662-0.775-3.631-1.17-5.838-1.17
		c-2.214,0-4.181,0.395-5.845,1.17c-1.669,0.78-3.073,1.85-4.189,3.183c-1.105,1.332-1.939,2.928-2.479,4.732
		c-0.531,1.801-0.799,3.768-0.799,5.857s0.268,4.063,0.799,5.857c0.539,1.805,1.368,3.4,2.483,4.734
		c1.111,1.332,2.521,2.398,4.185,3.154c1.669,0.758,3.631,1.143,5.845,1.143c2.207,0,4.171-0.385,5.838-1.143
		c1.665-0.756,3.074-1.822,4.186-3.154c1.11-1.33,1.944-2.926,2.479-4.734c0.534-1.799,0.802-3.771,0.802-5.857
		C175.293,99.462,175.025,97.49,174.491,95.689"/>
	<path fill="#00A1E0" d="M219.241,110.699c-0.181-0.529-0.694-0.33-0.694-0.33c-0.792,0.303-1.636,0.586-2.533,0.725
		c-0.912,0.143-1.913,0.213-2.988,0.213c-2.638,0-4.732-0.783-6.233-2.334c-1.506-1.551-2.348-4.057-2.34-7.449
		c0.01-3.087,0.754-5.408,2.091-7.176c1.328-1.759,3.351-2.661,6.047-2.661c2.25,0,3.963,0.259,5.758,0.825
		c0,0,0.431,0.186,0.635-0.377c0.477-1.323,0.83-2.271,1.338-3.726c0.145-0.413-0.208-0.589-0.335-0.639
		c-0.708-0.277-2.376-0.726-3.637-0.917c-1.179-0.181-2.557-0.276-4.089-0.276c-2.29,0-4.329,0.39-6.074,1.17
		c-1.741,0.775-3.221,1.845-4.39,3.177c-1.169,1.334-2.059,2.93-2.651,4.734c-0.59,1.799-0.89,3.776-0.89,5.865
		c0,4.521,1.22,8.174,3.627,10.85c2.413,2.684,6.034,4.049,10.759,4.049c2.793,0,5.657-0.566,7.716-1.379
		c0,0,0.396-0.189,0.223-0.648L219.241,110.699L219.241,110.699z"/>
	<path fill="#00A1E0" d="M228.776,98.521c0.259-1.755,0.742-3.214,1.491-4.353c1.129-1.728,2.851-2.675,5.271-2.675
		c2.423,0,4.023,0.952,5.17,2.675c0.761,1.139,1.092,2.662,1.223,4.353H228.776L228.776,98.521z M247.124,94.662
		c-0.462-1.745-1.609-3.51-2.363-4.316c-1.188-1.278-2.348-2.171-3.5-2.67c-1.504-0.644-3.308-1.07-5.285-1.07
		c-2.303,0-4.394,0.385-6.089,1.183c-1.7,0.798-3.129,1.886-4.247,3.242c-1.12,1.35-1.964,2.96-2.498,4.787
		c-0.54,1.818-0.813,3.799-0.813,5.889c0,2.127,0.282,4.107,0.839,5.889c0.562,1.797,1.461,3.379,2.675,4.689
		c1.21,1.318,2.77,2.352,4.639,3.074c1.854,0.715,4.107,1.088,6.696,1.082c5.326-0.018,8.133-1.207,9.288-1.846
		c0.204-0.111,0.4-0.313,0.154-0.883l-1.205-3.379c-0.183-0.502-0.694-0.316-0.694-0.316c-1.318,0.49-3.196,1.369-7.571,1.359
		c-2.86-0.004-4.982-0.848-6.311-2.166c-1.363-1.352-2.031-3.338-2.148-6.139l18.447,0.018c0,0,0.484-0.01,0.535-0.48
		C247.689,102.41,248.308,98.819,247.124,94.662L247.124,94.662z"/>
	<path fill="#00A1E0" d="M81.04,98.521c0.263-1.755,0.743-3.214,1.491-4.353c1.129-1.728,2.852-2.675,5.273-2.675
		c2.421,0,4.021,0.952,5.173,2.675c0.757,1.139,1.088,2.662,1.22,4.353H81.04L81.04,98.521z M99.382,94.662
		c-0.462-1.745-1.604-3.51-2.357-4.316c-1.188-1.278-2.348-2.171-3.5-2.67c-1.505-0.644-3.309-1.07-5.286-1.07
		c-2.298,0-4.393,0.385-6.088,1.183c-1.7,0.798-3.128,1.886-4.248,3.242c-1.12,1.35-1.963,2.96-2.498,4.787
		c-0.535,1.818-0.812,3.799-0.812,5.889c0,2.127,0.282,4.107,0.839,5.889c0.563,1.797,1.46,3.379,2.675,4.689
		c1.211,1.318,2.77,2.352,4.638,3.074c1.854,0.715,4.107,1.088,6.696,1.082c5.327-0.018,8.133-1.207,9.29-1.846
		c0.204-0.111,0.398-0.313,0.154-0.883l-1.202-3.379c-0.186-0.502-0.698-0.316-0.698-0.316c-1.319,0.49-3.191,1.369-7.575,1.359
		c-2.856-0.004-4.978-0.848-6.306-2.166c-1.365-1.352-2.031-3.338-2.149-6.139l18.448,0.018c0,0,0.485-0.01,0.535-0.48
		C99.954,102.41,100.57,98.819,99.382,94.662L99.382,94.662z"/>
	<path fill="#00A1E0" d="M41.166,110.6c-0.721-0.576-0.82-0.721-1.065-1.094c-0.363-0.566-0.548-1.373-0.548-2.398
		c0-1.623,0.535-2.787,1.646-3.572c-0.014,0.006,1.586-1.383,5.35-1.332c2.643,0.036,5.005,0.426,5.005,0.426v8.389h0.004
		c0,0-2.344,0.502-4.982,0.662C42.821,111.904,41.152,110.596,41.166,110.6 M48.506,97.638c-0.748-0.055-1.719-0.087-2.879-0.087
		c-1.583,0-3.11,0.199-4.543,0.586c-1.442,0.385-2.738,0.988-3.854,1.785c-1.12,0.803-2.022,1.828-2.675,3.043
		s-0.984,2.646-0.984,4.252c0,1.633,0.281,3.051,0.843,4.211c0.562,1.166,1.374,2.137,2.408,2.885
		c1.024,0.748,2.289,1.297,3.758,1.627c1.446,0.33,3.087,0.498,4.882,0.498c1.891,0,3.776-0.152,5.604-0.467
		c1.809-0.309,4.031-0.756,4.647-0.896c0.612-0.145,1.292-0.332,1.292-0.332c0.458-0.113,0.422-0.602,0.422-0.602l-0.009-16.87
		c0-3.7-0.988-6.442-2.933-8.142c-1.936-1.696-4.788-2.553-8.473-2.553c-1.383,0-3.609,0.19-4.941,0.458c0,0-4.031,0.779-5.69,2.076
		c0,0-0.363,0.227-0.164,0.734l1.306,3.509c0.164,0.453,0.604,0.299,0.604,0.299s0.14-0.055,0.303-0.148
		c3.55-1.932,8.039-1.873,8.039-1.873c1.995,0,3.527,0.398,4.561,1.191c1.006,0.771,1.519,1.937,1.519,4.394v0.78
		C49.961,97.77,48.506,97.638,48.506,97.638"/>
	<path fill="#00A1E0" d="M197.292,88.132c0.14-0.417-0.155-0.617-0.277-0.662c-0.313-0.123-1.881-0.454-3.092-0.531
		c-2.316-0.14-3.604,0.249-4.756,0.767c-1.143,0.516-2.411,1.351-3.119,2.298V87.76c0-0.313-0.222-0.562-0.529-0.562h-4.73
		c-0.308,0-0.529,0.249-0.529,0.562v27.515c0,0.309,0.254,0.563,0.562,0.563h4.847c0.309,0,0.559-0.254,0.559-0.563v-13.746
		c0-1.846,0.203-3.686,0.611-4.842c0.398-1.143,0.943-2.059,1.614-2.716c0.675-0.652,1.442-1.11,2.28-1.369
		c0.856-0.263,1.804-0.349,2.475-0.349c0.966,0,2.027,0.249,2.027,0.249c0.354,0.041,0.553-0.177,0.671-0.499
		C196.222,91.16,197.119,88.635,197.292,88.132"/>
	<path fill="#00A1E0" d="M151.8,75.38c-0.589-0.182-1.124-0.304-1.822-0.436c-0.708-0.126-1.55-0.19-2.508-0.19
		c-3.337,0-5.966,0.943-7.812,2.802c-1.835,1.85-3.082,4.666-3.708,8.369l-0.227,1.247h-4.188c0,0-0.508-0.019-0.617,0.535
		l-0.685,3.84c-0.05,0.363,0.108,0.594,0.599,0.594h4.075l-4.135,23.086c-0.321,1.857-0.693,3.387-1.106,4.547
		c-0.403,1.143-0.797,2-1.287,2.625c-0.472,0.598-0.915,1.043-1.687,1.301c-0.635,0.213-1.369,0.313-2.172,0.313
		c-0.443,0-1.038-0.072-1.478-0.162c-0.435-0.086-0.666-0.182-0.997-0.322c0,0-0.477-0.182-0.667,0.295
		c-0.149,0.395-1.237,3.383-1.369,3.75c-0.127,0.365,0.054,0.652,0.286,0.738c0.543,0.191,0.947,0.316,1.686,0.494
		c1.024,0.24,1.891,0.254,2.702,0.254c1.696,0,3.247-0.24,4.53-0.703c1.287-0.467,2.411-1.279,3.409-2.375
		c1.074-1.189,1.749-2.43,2.393-4.131c0.64-1.678,1.188-3.762,1.624-6.193l4.157-23.516h6.075c0,0,0.513,0.019,0.616-0.539
		l0.689-3.835c0.046-0.367-0.109-0.594-0.604-0.594h-5.898c0.031-0.132,0.3-2.208,0.975-4.162c0.292-0.83,0.835-1.505,1.293-1.967
		c0.453-0.454,0.975-0.775,1.546-0.961c0.585-0.191,1.252-0.281,1.98-0.281c0.555,0,1.102,0.064,1.515,0.15
		c0.571,0.123,0.794,0.186,0.943,0.231c0.603,0.181,0.686,0.005,0.802-0.286l1.41-3.872C152.285,75.607,151.928,75.43,151.8,75.38"
		/>
	<path fill="#00A1E0" d="M69.39,115.275c0,0.311-0.222,0.559-0.53,0.559h-4.892c-0.309,0-0.526-0.248-0.526-0.559V75.907
		c0-0.308,0.218-0.558,0.526-0.558h4.892c0.308,0,0.53,0.25,0.53,0.558V115.275L69.39,115.275z"/>
</g>
</svg>
